# xmcd CD database file
#
# Track frame offsets:
#	150
#	10184
#	19429
#	29613
#	39318
#	50455
#	61779
#	73056
#	84441
#	92450
#	102020
#	112864
#	123084
#	131388
#	141533
#	154605
#	163794
#	174836
#	186208
#	199590
#	211097
#	220352
#	230031
#
# Disc length: 3199 seconds
#
# Revision: 0
# Processed by: cddbd v1.4PL0 Copyright (c) Steve Scherf et al.
# Submitted via: CDex 1.50
#
DISCID=320c7d17
DTITLE=Smiley Lewis - Shame, Shame, Shame [CD4 Of 4)
DYEAR=1993
DGENRE=Vintage R&B
TTITLE0=Lil Liza Jane
TTITLE1=I Shall Not Be Moved
TTITLE2=Ain't Goin' There No More
TTITLE3=Oh Red!
TTITLE4=Last Night
TTITLE5=I Want To Be With Her
TTITLE6=Tell Me Who
TTITLE7=Stormy Monday Blues
TTITLE8=These Bones
TTITLE9=Goin' Down The Road
TTITLE10=Tore Up
TTITLE11=I'm Comin' Down With The Blues
TTITLE12=Tomorrow Night
TTITLE13=To The River
TTITLE14=I Wonder
TTITLE15=Sometimes
TTITLE16=Lookin' For My Woman
TTITLE17=One Night Of Sin
TTITLE18=The Bells Are Ringing
TTITLE19=The Jump (Instrumental)
TTITLE20=Walkin' The Girl (Instrumental)
TTITLE21=Oh Red!
TTITLE22=Ain't Goin' There No More
EXTD=YEAR: 1993
EXTT0=
EXTT1=
EXTT2=
EXTT3=
EXTT4=
EXTT5=
EXTT6=
EXTT7=
EXTT8=
EXTT9=
EXTT10=
EXTT11=
EXTT12=
EXTT13=
EXTT14=
EXTT15=
EXTT16=
EXTT17=
EXTT18=
EXTT19=
EXTT20=
EXTT21=
EXTT22=
PLAYORDER=
